#N canvas 676 0 681 676 10;
#X declare -lib mrpeach;
#X obj 13 238 import mrpeach;
#X msg 30 436 disconnect;
#X obj 33 413 packOSC;
#X obj 19 455 udpsend;
#X msg 19 303 connect localhost 5005;
#X msg 33 394 send /start \$1;
#X obj 1139 175 unpackOSC;
#X obj 1186 223 print;
#X obj 1139 156 udpreceive 5006;
#X obj 864 224 list;
#X obj 864 187 until;
#X msg 864 169 500;
#X obj 864 206 random 1000;
#X obj 904 225 list;
#X obj 831 242 list;
#X obj 831 145 t b b;
#X msg 831 127 bang;
#X obj 831 262 list2symbol;
#X obj 831 282 print;
#X obj 1174 486 readsf~;
#X obj 1121 560 key;
#X obj 1121 579 sel 32;
#X obj 1137 603 bng 15 250 50 0 empty empty empty 17 7 0 10 -262144
-1 -1;
#X msg 1173 467 open \$1;
#X text 1107 498 play;
#X obj 1097 623 print;
#X obj 1094 599 timer;
#X obj 1094 652 list;
#X obj 1124 652 list;
#X obj 1072 672 list;
#X obj 1072 691 list2symbol;
#X msg 1062 520 bang;
#X obj 1139 429 t b b b b;
#X symbolatom 230 318 15 0 0 0 - - -;
#X obj 558 715 loadbang;
#X msg 558 734 \; data color 0;
#X msg 521 767 \; data vis_size 0 70;
#X obj 643 715 loadbang;
#X msg 642 736 \; song color 0;
#X obj 796 705 loadbang;
#X msg 786 727 \; msg color 0;
#X msg 933 739 \; msg vis_size 0 100;
#X obj 226 390 cnv 15 100 20 empty song-name grupo-niche-gotas-de-lluvia.wav
15 15 0 14 -262144 -66577 0;
#X obj 236 427 bng 95 250 50 0 empty empty Reproducir 20 50 0 10 -1
-4160 -191407;
#X obj 359 428 bng 95 250 50 0 empty but-volver Volver_Intentar 3 50
0 10 -258113 -191407 -66577;
#X obj 227 564 cnv 15 250 40 empty visual-feedback empty 20 12 0 14
-233017 -166441 0;
#X text 258 697 Gracias por anotar esta canción;
#X text 284 720 ¿Quieres anotar otra?;
#X obj 310 754 bng 15 250 50 0 other-tag-yes empty empty 17 7 0 10
-262144 -1 -1;
#X obj 363 755 bng 15 250 50 0 empty empty empty 17 7 0 10 -262144
-1 -1;
#X text 309 772 Si;
#X text 364 774 No;
#X obj 202 673 cnv 15 290 120 empty msg empty 20 12 0 14 -262144 -262144
0;
#X obj 1418 552 key;
#X obj 1418 571 sel 32;
#X obj 1418 590 t b b;
#X msg 1445 609 \; visual-feedback color 12 1 1;
#X msg 1418 661 \; visual-feedback color 10 1 1;
#X obj 1139 237 l2s;
#X obj 1139 256 symbol;
#X msg 1190 298 \; song-name label \$1;
#X obj 734 555 l2s;
#X obj 734 574 symbol;
#X obj 734 516 loadbang;
#X msg 734 593 \; but-volver label \$1;
#X text 348 319 Introduce tu Cédula;
#X obj 201 387 cnv 15 290 250 empty song empty 20 12 0 14 -262144 -262144
0;
#X obj 201 301 cnv 15 1 70 empty data empty 20 12 0 14 -262144 -262144
0;
#X msg 734 535 Volver_Intentar;
#X obj 1311 249 sel 1;
#X obj 1474 247 sel 0;
#X obj 228 337 cnv 15 150 10 empty msg-valido No_Valido 20 12 0 10
-262144 -262144 0;
#X obj 1474 283 t b b;
#X msg 1474 353 \; msg-valido color 0 1 0;
#X msg 1501 302 \; msg-valido color 0 1 13;
#X obj 1474 266 bng 15 250 50 0 empty empty empty 17 7 0 10 -262144
-1 -1;
#X obj 1474 334 delay 2000;
#X text 563 625 Carga inicial de la app;
#X obj 915 706 bng 15 250 50 0 /hola empty empty 17 7 0 10 -262144
-1 -1;
#X text 940 719 Msg final;
#X text 1140 135 Escucha msg Server;
#X text 1441 207 Validación Usuario;
#X text 12 258 Comunicación con el server;
#X text 971 220 Reproducción de la canción;
#X text 1450 547 Barra de FeedBack;
#X obj 1418 641 delay 200;
#X obj 536 634 bng 15 250 50 0 empty empty empty 17 7 0 10 -262144
-1 -1;
#X msg 1096 519 1;
#X msg 1080 430 0;
#X obj 537 695 bng 15 250 50 0 empty empty empty 17 7 0 10 -262144
-1 -1;
#X obj 633 684 bng 15 250 50 0 empty empty empty 17 7 0 10 -262144
-1 -1;
#X obj 779 689 bng 15 250 50 0 empty empty empty 17 7 0 10 -262144
-1 -1;
#X obj 19 283 loadbang;
#X obj 1311 230 t a a;
#X obj 1311 268 t b b;
#X obj 1174 506 dac~;
#X obj 1139 194 routeOSC /songid /validation;
#X obj 1173 448 symbol;
#X text 1101 542 barra espaciadora;
#X obj 1365 260 bng 15 250 50 0 empty empty empty 17 7 0 10 -262144
-1 -1;
#X obj 33 356 r other-tag-yes;
#X obj 33 375 symbol;
#X obj 779 670 r other-tag-yes;
#X msg 569 375 \; song-name vis_size 100 20;
#X msg 779 768 \; msg vis_size 290 120;
#X msg 1338 287 \; data vis_size 290 70;
#X msg 1248 470 bang;
#X obj 552 194 loadbang;
#X msg 560 223 \; pd dsp 1;
#X msg 1072 874 send /save \$1;
#X obj 1072 711 symbol;
#X text 1120 712 beats;
#X obj 1097 275 s name;
#X obj 1141 732 r name;
#X obj 1141 751 symbol;
#X obj 1204 732 r id;
#X obj 1204 751 symbol;
#X obj 132 392 s id;
#X obj 207 254 list prepend;
#X obj 215 297 print;
#X obj 296 237 list append;
#X obj 1072 834 list prepend;
#X obj 1141 815 list append;
#X obj 1141 794 list append;
#X obj 1141 773 list append;
#X obj 1248 758 r delay;
#X obj 1310 779 r beatsum;
#X obj 1072 895 print aaaaaaaaa;
#X msg 1058 640 bang;
#X obj 1180 851 print bbbb;
#X obj 988 679 s make-label;
#X obj 949 635 r dump-beats;
#X obj 1213 506 s dump-beats;
#X obj 1213 579 r make-label;
#X obj 1072 854 l2s;
#X msg 642 768 \; song vis_size 290 250;
#X msg 915 771 \; song vis_size 290 250;
#X msg 1311 320 \; song vis_size 0 250;
#X obj 1139 276 t b b a a;
#X msg 1156 335 Music;
#X obj 1156 355 symbol;
#X obj 1156 377 pack s s;
#X msg 1156 399 ../\$1/\$2;
#X obj 1206 427 l2s;
#X obj 1053 407 t b b;
#X msg 1248 777 0.5;
#X msg 1309 798 0;
#X obj 995 891 s sData;
#X obj -22 396 r sData;
#X obj 949 655 t b b b;
#X obj 1211 600 t b b b b;
#X obj 1057 498 t b b b;
#X connect 1 0 3 0;
#X connect 2 0 3 0;
#X connect 4 0 3 0;
#X connect 5 0 2 0;
#X connect 6 0 96 0;
#X connect 8 0 6 0;
#X connect 9 0 13 0;
#X connect 9 0 14 1;
#X connect 10 0 12 0;
#X connect 11 0 10 0;
#X connect 12 0 9 0;
#X connect 13 0 9 1;
#X connect 14 0 17 0;
#X connect 15 0 14 0;
#X connect 15 1 11 0;
#X connect 16 0 15 0;
#X connect 17 0 18 0;
#X connect 19 0 95 0;
#X connect 19 0 95 1;
#X connect 19 1 132 0;
#X connect 20 0 21 0;
#X connect 21 0 22 0;
#X connect 21 0 26 1;
#X connect 23 0 19 0;
#X connect 26 0 25 0;
#X connect 26 0 27 0;
#X connect 27 0 28 0;
#X connect 27 0 29 1;
#X connect 28 0 27 1;
#X connect 29 0 30 0;
#X connect 30 0 110 0;
#X connect 31 0 27 1;
#X connect 31 0 29 1;
#X connect 32 2 97 0;
#X connect 33 0 101 0;
#X connect 34 0 35 0;
#X connect 34 0 36 0;
#X connect 37 0 38 0;
#X connect 37 0 135 0;
#X connect 39 0 40 0;
#X connect 39 0 104 0;
#X connect 43 0 151 0;
#X connect 44 0 144 0;
#X connect 49 0 86 0;
#X connect 53 0 54 0;
#X connect 54 0 55 0;
#X connect 55 0 85 0;
#X connect 55 1 56 0;
#X connect 58 0 59 0;
#X connect 59 0 112 0;
#X connect 59 0 138 0;
#X connect 61 0 62 0;
#X connect 62 0 64 0;
#X connect 63 0 68 0;
#X connect 68 0 61 0;
#X connect 69 0 94 0;
#X connect 70 0 75 0;
#X connect 72 0 76 0;
#X connect 72 1 74 0;
#X connect 75 0 72 0;
#X connect 76 0 73 0;
#X connect 78 0 136 0;
#X connect 78 0 41 0;
#X connect 85 0 57 0;
#X connect 86 0 89 0;
#X connect 86 0 90 0;
#X connect 86 0 91 0;
#X connect 87 0 19 0;
#X connect 88 0 19 0;
#X connect 89 0 36 0;
#X connect 89 0 35 0;
#X connect 90 0 135 0;
#X connect 90 0 38 0;
#X connect 91 0 104 0;
#X connect 91 0 40 0;
#X connect 92 0 4 0;
#X connect 93 0 69 0;
#X connect 93 1 70 0;
#X connect 94 0 137 0;
#X connect 94 1 105 0;
#X connect 96 0 7 0;
#X connect 96 0 58 0;
#X connect 96 1 93 0;
#X connect 97 0 23 0;
#X connect 99 0 94 0;
#X connect 100 0 101 0;
#X connect 101 0 5 0;
#X connect 101 0 117 0;
#X connect 102 0 91 0;
#X connect 106 0 132 0;
#X connect 107 0 108 0;
#X connect 109 0 127 0;
#X connect 109 0 147 0;
#X connect 110 0 121 0;
#X connect 113 0 114 0;
#X connect 114 0 124 0;
#X connect 115 0 116 0;
#X connect 116 0 124 1;
#X connect 118 0 119 0;
#X connect 120 0 118 1;
#X connect 121 0 134 0;
#X connect 122 0 121 1;
#X connect 122 0 129 0;
#X connect 123 0 122 0;
#X connect 124 0 123 0;
#X connect 125 0 145 0;
#X connect 126 0 146 0;
#X connect 128 0 29 0;
#X connect 131 0 149 0;
#X connect 133 0 150 0;
#X connect 134 0 109 0;
#X connect 138 0 32 0;
#X connect 138 1 139 0;
#X connect 138 2 141 1;
#X connect 138 3 60 0;
#X connect 139 0 140 0;
#X connect 140 0 141 0;
#X connect 141 0 142 0;
#X connect 142 0 143 0;
#X connect 143 0 97 1;
#X connect 144 0 97 0;
#X connect 144 1 88 0;
#X connect 145 0 123 1;
#X connect 146 0 122 1;
#X connect 148 0 2 0;
#X connect 149 0 29 0;
#X connect 149 1 78 0;
#X connect 149 2 130 0;
#X connect 150 0 114 0;
#X connect 150 1 116 0;
#X connect 150 2 145 0;
#X connect 150 3 146 0;
#X connect 151 0 26 0;
#X connect 151 1 31 0;
#X connect 151 2 87 0;
#X coords 0 -1 1 1 300 500 2 200 300;
