#N canvas -8 -8 1366 725 10;
#X declare -lib mrpeach;
#X obj 5 -305 import mrpeach;
#X msg 79 -216 disconnect;
#X obj 129 -120 packOSC;
#X obj 45 -78 udpsend;
#X msg 11 -249 connect localhost 5005;
#X msg 131 -205 send /start \$1;
#X obj 1438 -4 unpackOSC;
#X obj 1442 197 print;
#X obj 1437 -46 udpreceive 5006;
#X obj 739 846 packOSC;
#X obj 1223 539 print;
#X msg 1223 521 send /hola \$1;
#X obj 708 205 list;
#X obj 708 168 until;
#X msg 708 150 500;
#X obj 708 187 random 1000;
#X obj 764 208 list;
#X obj 684 253 list;
#X obj 675 126 t b b;
#X msg 675 108 bang;
#X obj 685 279 list2symbol;
#X obj 685 310 print;
#X obj 1284 301 readsf~;
#X msg 1251 150 bang;
#X msg 1258 257 1;
#X obj 1383 313 key;
#X obj 1383 331 sel 32;
#X obj 1384 350 bng 15 250 50 0 empty empty empty 17 7 0 10 -262144
-1 -1;
#X obj 1289 218 list;
#X msg 1292 259 open \$1;
#X obj 1333 160 l2s;
#X text 1261 130 play;
#X obj 1282 405 print;
#X obj 1284 360 timer;
#X msg 1386 258 tempo 1 msec;
#X obj 1244 437 list;
#X obj 1300 440 list;
#X obj 1223 485 list;
#X obj 1223 503 list2symbol;
#X msg 1545 386 bang;
#X msg 1177 183 bang;
#X obj 1259 168 t b b b b;
#X obj 1434 38 routeOSC /songid;
#X msg 606 687 1 \; 2 \; 0.374 \, 0.497 \, 0.95 \, 0.074 \; 1.895;
#X obj 719 770 l2s;
#X msg 739 815 send /save 0.374;
#X symbolatom 230 331 15 0 0 0 - - -;
#X obj 533 365 loadbang;
#X msg 533 392 \; data color 0;
#X msg 31 15 \; data vis_size 300 70;
#X msg 533 432 \; data vis_size 0 70;
#X obj 721 362 loadbang;
#X msg 721 389 \; song color 0;
#X msg 27 79 \; song vis_size 0 300;
#X msg 720 443 \; song vis_size 300 300;
#X obj 921 361 loadbang;
#X msg 921 388 \; msg color 0;
#X msg 920 477 \; msg vis_size 0 100;
#X obj 201 371 cnv 300 100 60 empty song-name 6.mp3 15 15 0 14 -262144
-66577 0;
#X obj 236 427 bng 95 250 50 0 empty empty Reproducir 20 50 0 10 -1
-4160 -191407;
#X obj 359 428 bng 95 250 50 0 empty but-volver Volver_Intentar 3 50
0 10 -258113 -191407 -66577;
#X obj 227 564 cnv 15 250 40 empty visual-feedback empty 20 12 0 14
-233017 -166441 0;
#X text 258 697 Gracias por anotar esta canción;
#X text 284 720 ¿Quieres anotar otra?;
#X obj 310 754 bng 15 250 50 0 empty empty empty 17 7 0 10 -262144
-1 -1;
#X obj 363 755 bng 15 250 50 0 empty empty empty 17 7 0 10 -262144
-1 -1;
#X text 309 772 Si;
#X text 364 774 No;
#X obj 200 673 cnv 15 300 120 empty msg empty 20 12 0 14 -262144 -262144
0;
#X obj 1005 674 key;
#X obj 1002 701 sel 32;
#X obj 1003 727 t b b;
#X msg 1041 755 \; visual-feedback color 12 1 1;
#X obj 1005 787 delay 200;
#X msg 1005 824 \; visual-feedback color 10 1 1;
#X msg 920 438 \; msg vis_size 300 120;
#X obj 1142 42 l2s;
#X obj 1143 65 symbol;
#X msg 1142 86 \; song-name label \$1;
#X obj 995 573 l2s;
#X obj 996 596 symbol;
#X obj 994 523 loadbang;
#X msg 995 617 \; but-volver label \$1;
#X text 348 332 Introduce tu Cédula;
#X obj 199 372 cnv 15 1 300 empty song empty 20 12 0 14 -262144 -262144
0;
#X obj 200 300 cnv 15 1 70 empty data empty 20 12 0 14 -262144 -262144
0;
#X msg 994 548 Volver_Intentar;
#X connect 1 0 3 0;
#X connect 2 0 3 0;
#X connect 3 0 49 0;
#X connect 4 0 3 0;
#X connect 5 0 2 0;
#X connect 6 0 42 0;
#X connect 8 0 6 0;
#X connect 9 0 3 0;
#X connect 11 0 10 0;
#X connect 12 0 16 0;
#X connect 12 0 17 1;
#X connect 13 0 15 0;
#X connect 14 0 13 0;
#X connect 15 0 12 0;
#X connect 16 0 12 1;
#X connect 17 0 20 0;
#X connect 18 0 17 0;
#X connect 18 1 14 0;
#X connect 19 0 18 0;
#X connect 20 0 21 0;
#X connect 23 0 41 0;
#X connect 24 0 22 0;
#X connect 25 0 26 0;
#X connect 26 0 27 0;
#X connect 26 0 33 1;
#X connect 28 0 29 0;
#X connect 29 0 22 0;
#X connect 30 0 28 1;
#X connect 33 0 32 0;
#X connect 33 0 35 0;
#X connect 34 0 33 0;
#X connect 35 0 36 0;
#X connect 35 0 37 1;
#X connect 36 0 35 1;
#X connect 37 0 38 0;
#X connect 38 0 11 0;
#X connect 39 0 35 1;
#X connect 40 0 37 0;
#X connect 41 0 24 0;
#X connect 41 1 33 0;
#X connect 41 2 28 0;
#X connect 41 3 39 0;
#X connect 42 0 7 0;
#X connect 42 0 30 0;
#X connect 42 0 76 0;
#X connect 43 0 44 0;
#X connect 44 0 45 0;
#X connect 45 0 9 0;
#X connect 46 0 5 0;
#X connect 47 0 48 0;
#X connect 48 0 50 0;
#X connect 49 0 53 0;
#X connect 51 0 52 0;
#X connect 52 0 54 0;
#X connect 55 0 56 0;
#X connect 56 0 75 0;
#X connect 69 0 70 0;
#X connect 70 0 71 0;
#X connect 71 0 73 0;
#X connect 71 1 72 0;
#X connect 73 0 74 0;
#X connect 76 0 77 0;
#X connect 77 0 78 0;
#X connect 79 0 80 0;
#X connect 80 0 82 0;
#X connect 81 0 86 0;
#X connect 86 0 79 0;
#X coords 0 -1 1 1 300 500 2 200 300;
