#N canvas 546 124 836 729 10;
#X obj 483 245 print;
#X msg 483 227 send /hola \$1;
#X obj 123 104 list;
#X obj 123 67 until;
#X msg 123 49 500;
#X obj 123 86 random 1000;
#X obj 179 107 list;
#X obj 99 152 list;
#X obj 90 25 t b b;
#X msg 90 7 bang;
#X obj 100 178 list2symbol;
#X obj 100 209 print;
#X obj 544 117 readsf~;
#X msg 518 41 bang;
#X msg 518 93 1;
#X obj 621 102 key;
#X obj 621 120 sel 32;
#X obj 622 139 bng 15 250 50 0 empty empty empty 17 7 0 10 -262144
-1 -1;
#X obj 552 77 list;
#X msg 552 95 open \$1;
#X msg 585 42 nombre canción.mp3;
#X obj 585 61 l2s;
#N canvas 0 23 450 300 receive 0;
#X text 101 37 rrecive un númerod epython vía osc;
#X text 173 196 envía un nombre para gcargar un mp3;
#X obj 133 211 outlet nombre del mp3;
#X restore 585 23 pd receive from python;
#X text 528 21 play;
#X obj 550 155 print;
#X obj 544 136 timer;
#X msg 620 84 tempo 1 msec;
#X obj 504 173 list;
#X obj 560 176 list;
#X obj 483 191 list;
#X obj 483 209 list2symbol;
#X msg 805 157 bang;
#X msg 482 74 bang;
#X obj 518 59 t b b b b;
#X obj 38 294 cnv 15 100 60 empty nombre-cancion gracias por anotar esta cancion
20 12 0 14 -262144 -262144 0;
#X msg 460 350 \; nombre-cancion label \$1;
#X obj 460 332 symbol;
#X obj 460 314 list2symbol;
#X obj 121 585 cnv 15 400 40 empty visual-feedback empty 20 12 0 14
-233017 -166441 0;
#X msg 567 650 \; visual-feedback color 10 1 1;
#X msg 595 596 \; visual-feedback color 12 1 1;
#X obj 568 541 key;
#X obj 568 559 sel 32;
#X obj 568 578 t b b;
#X obj 567 632 delay 200;
#X msg 460 296 gracias por anotar esta cancion;
#X msg 625 362 \; nombre-cancion color 0;
#X obj 625 344 loadbang;
#X msg 327 415 \; cortina1 vis_size 10 50;
#X obj 329 353 loadbang;
#X msg 330 378 \; cortina1 color 0;
#X obj 59 410 bng 15 250 50 0 empty empty empty 17 7 0 10 -262144 -1
-1;
#X obj 82 410 bng 15 250 50 0 empty empty empty 17 7 0 10 -262144 -1
-1;
#X msg 327 458 \; cortina1 vis_size 100 50;
#X obj 34 394 cnv 15 10 50 empty cortina1 empty 20 12 0 14 -262144
-262144 0;
#X text 492 421 desocultar;
#X text 484 446 ocultar;
#X connect 1 0 0 0;
#X connect 2 0 6 0;
#X connect 2 0 7 1;
#X connect 3 0 5 0;
#X connect 4 0 3 0;
#X connect 5 0 2 0;
#X connect 6 0 2 1;
#X connect 7 0 10 0;
#X connect 8 0 7 0;
#X connect 8 1 4 0;
#X connect 9 0 8 0;
#X connect 10 0 11 0;
#X connect 13 0 33 0;
#X connect 14 0 12 0;
#X connect 15 0 16 0;
#X connect 16 0 17 0;
#X connect 16 0 25 1;
#X connect 18 0 19 0;
#X connect 19 0 12 0;
#X connect 20 0 21 0;
#X connect 21 0 18 1;
#X connect 22 0 20 0;
#X connect 25 0 24 0;
#X connect 25 0 27 0;
#X connect 26 0 25 0;
#X connect 27 0 28 0;
#X connect 27 0 29 1;
#X connect 28 0 27 1;
#X connect 29 0 30 0;
#X connect 30 0 1 0;
#X connect 31 0 27 1;
#X connect 32 0 29 0;
#X connect 33 0 14 0;
#X connect 33 1 25 0;
#X connect 33 2 18 0;
#X connect 33 3 31 0;
#X connect 36 0 35 0;
#X connect 37 0 36 0;
#X connect 41 0 42 0;
#X connect 42 0 43 0;
#X connect 43 0 44 0;
#X connect 43 1 40 0;
#X connect 44 0 39 0;
#X connect 45 0 37 0;
#X connect 47 0 46 0;
#X connect 49 0 50 0;
