#N canvas 442 123 723 616 10;
#X obj 347 460 print;
#X msg 347 442 send /hola \$1;
#X obj 123 104 list;
#X obj 123 67 until;
#X msg 123 49 500;
#X obj 123 86 random 1000;
#X obj 179 107 list;
#X obj 99 152 list;
#X obj 90 25 t b b;
#X msg 90 7 bang;
#X obj 100 178 list2symbol;
#X obj 100 209 print;
#X obj 408 222 readsf~;
#X msg 375 71 bang;
#X msg 382 178 1;
#X obj 507 234 key;
#X obj 507 252 sel 32;
#X obj 508 271 bng 15 250 50 0 empty empty empty 17 7 0 10 -262144
-1 -1;
#X obj 413 139 list;
#X msg 416 180 open \$1;
#X msg 518 73 nombre canción.mp3;
#X obj 446 123 l2s;
#N canvas 0 23 450 300 receive 0;
#X text 101 37 rrecive un númerod epython vía osc;
#X text 173 196 envía un nombre para gcargar un mp3;
#X obj 133 211 outlet nombre del mp3;
#X restore 518 54 pd receive from python;
#X text 385 51 play;
#X obj 406 326 print;
#X obj 408 281 timer;
#X msg 510 179 tempo 1 msec;
#X obj 368 358 list;
#X obj 424 361 list;
#X obj 347 406 list;
#X obj 347 424 list2symbol;
#X msg 669 307 bang;
#X msg 301 104 bang;
#X obj 383 89 t b b b b;
#X connect 1 0 0 0;
#X connect 2 0 6 0;
#X connect 2 0 7 1;
#X connect 3 0 5 0;
#X connect 4 0 3 0;
#X connect 5 0 2 0;
#X connect 6 0 2 1;
#X connect 7 0 10 0;
#X connect 8 0 7 0;
#X connect 8 1 4 0;
#X connect 9 0 8 0;
#X connect 10 0 11 0;
#X connect 13 0 33 0;
#X connect 14 0 12 0;
#X connect 15 0 16 0;
#X connect 16 0 17 0;
#X connect 16 0 25 1;
#X connect 18 0 19 0;
#X connect 19 0 12 0;
#X connect 20 0 21 0;
#X connect 21 0 18 1;
#X connect 22 0 20 0;
#X connect 25 0 24 0;
#X connect 25 0 27 0;
#X connect 26 0 25 0;
#X connect 27 0 28 0;
#X connect 27 0 29 1;
#X connect 28 0 27 1;
#X connect 29 0 30 0;
#X connect 30 0 1 0;
#X connect 31 0 27 1;
#X connect 32 0 29 0;
#X connect 33 0 14 0;
#X connect 33 1 25 0;
#X connect 33 2 18 0;
#X connect 33 3 31 0;
