#N canvas 550 0 681 676 10;
#X declare -lib mrpeach;
#X obj 125 65 import mrpeach;
#X msg 227 204 disconnect;
#X floatatom 241 271 5 0 0 0 - - -;
#X msg 243 311 send /start \$1;
#X obj 247 362 packOSC;
#X obj 141 422 udpsend;
#X msg 141 157 connect localhost 5005;
#X obj 485 169 list;
#X obj 425 121 bng 15 250 50 0 empty empty empty 17 7 0 10 -262144
-1 -1;
#X msg 494 126 hola;
#X msg 551 127 chao;
#X obj 487 246 print;
#X obj 464 136 bng 15 250 50 0 empty empty empty 17 7 0 10 -262144
-1 -1;
#X connect 1 0 5 0;
#X connect 2 0 3 0;
#X connect 3 0 4 0;
#X connect 4 0 5 0;
#X connect 6 0 5 0;
#X connect 7 0 11 0;
#X connect 8 0 7 0;
#X connect 8 0 12 0;
#X connect 9 0 7 0;
#X connect 10 0 7 1;
#X connect 12 0 7 1;
