#N canvas 841 215 450 300 10;
#X obj 78 34 import mrpeach;
#X msg 78 80 connect localhost 5005;
#X msg 135 119 disconnect;
#X floatatom 164 170 5 0 0 0 - - -;
#X msg 164 196 send /start \$1;
#X obj 164 224 packOSC;
#X obj 62 264 udpsend;
#X connect 1 0 6 0;
#X connect 2 0 6 0;
#X connect 3 0 4 0;
#X connect 4 0 5 0;
#X connect 5 0 6 0;
